<svg width="20" height="20" viewBox="0 0 20 20" fill="none" xmlns="http://www.w3.org/2000/svg">
<path d="M12.47 1.69002C12.1376 1.38527 11.7004 1.22061 11.2495 1.23039C10.7986 1.24017 10.3689 1.42364 10.05 1.74252L1.78002 10.0125C1.6175 10.175 1.48858 10.368 1.40062 10.5803C1.31267 10.7926 1.2674 11.0202 1.2674 11.25C1.2674 11.4798 1.31267 11.7074 1.40062 11.9198C1.48858 12.1321 1.6175 12.325 1.78002 12.4875L2.93752 13.645C3.37127 14.0788 3.99502 13.975 4.36252 13.7288C4.62697 13.553 4.94411 13.4742 5.26008 13.5057C5.57606 13.5372 5.87138 13.6771 6.09591 13.9016C6.32045 14.1262 6.46035 14.4215 6.49186 14.7375C6.52337 15.0534 6.44454 15.3706 6.26877 15.635C6.02502 16.0038 5.92002 16.6275 6.35377 17.0613L7.48502 18.1925C7.65065 18.3583 7.8479 18.4892 8.06506 18.5773C8.28223 18.6654 8.51487 18.709 8.74921 18.7055C8.98354 18.702 9.21479 18.6515 9.42922 18.5569C9.64365 18.4624 9.83691 18.3257 9.99752 18.155L18.245 9.39002C18.404 9.22129 18.5278 9.02265 18.6094 8.80565C18.6909 8.58865 18.7286 8.35761 18.7201 8.12594C18.7116 7.89428 18.6571 7.66661 18.5599 7.45616C18.4627 7.24571 18.3247 7.05667 18.1538 6.90002L17.0463 5.88502C16.9244 5.77602 16.7789 5.69691 16.6211 5.65395C16.4634 5.61099 16.2978 5.60537 16.1375 5.63752C15.8538 5.68752 15.585 5.83877 15.39 6.05127C15.268 6.1844 15.1209 6.29219 14.9572 6.36847C14.7935 6.44476 14.6164 6.48806 14.4359 6.49589C14.2555 6.50373 14.0753 6.47595 13.9056 6.41414C13.7359 6.35233 13.58 6.25769 13.4469 6.13565C13.178 5.88916 13.0181 5.54597 13.0023 5.18156C12.9944 5.00112 13.0222 4.82091 13.084 4.65121C13.1458 4.48151 13.2405 4.32565 13.3625 4.19252C13.5588 3.98127 13.685 3.70002 13.7113 3.41377C13.7295 3.25134 13.7097 3.08689 13.6533 2.93347C13.5968 2.78006 13.5054 2.64192 13.3863 2.53002L12.47 1.69002Z" fill="#04021D"/>
</svg>
