<svg width="24" height="25" viewBox="0 0 24 25" fill="none" xmlns="http://www.w3.org/2000/svg">
<path d="M4 6.5C4 6.23478 4.10536 5.98043 4.29289 5.79289C4.48043 5.60536 4.73478 5.5 5 5.5H19C19.2652 5.5 19.5196 5.60536 19.7071 5.79289C19.8946 5.98043 20 6.23478 20 6.5C20 6.76522 19.8946 7.01957 19.7071 7.20711C19.5196 7.39464 19.2652 7.5 19 7.5H5C4.73478 7.5 4.48043 7.39464 4.29289 7.20711C4.10536 7.01957 4 6.76522 4 6.5ZM4 10.5C4 10.2348 4.10536 9.98043 4.29289 9.79289C4.48043 9.60536 4.73478 9.5 5 9.5H19C19.2652 9.5 19.5196 9.60536 19.7071 9.79289C19.8946 9.98043 20 10.2348 20 10.5C20 10.7652 19.8946 11.0196 19.7071 11.2071C19.5196 11.3946 19.2652 11.5 19 11.5H5C4.73478 11.5 4.48043 11.3946 4.29289 11.2071C4.10536 11.0196 4 10.7652 4 10.5ZM4 14.5C4 14.2348 4.10536 13.9804 4.29289 13.7929C4.48043 13.6054 4.73478 13.5 5 13.5H19C19.2652 13.5 19.5196 13.6054 19.7071 13.7929C19.8946 13.9804 20 14.2348 20 14.5C20 14.7652 19.8946 15.0196 19.7071 15.2071C19.5196 15.3946 19.2652 15.5 19 15.5H5C4.73478 15.5 4.48043 15.3946 4.29289 15.2071C4.10536 15.0196 4 14.7652 4 14.5ZM4 18.5C4 18.2348 4.10536 17.9804 4.29289 17.7929C4.48043 17.6054 4.73478 17.5 5 17.5H19C19.2652 17.5 19.5196 17.6054 19.7071 17.7929C19.8946 17.9804 20 18.2348 20 18.5C20 18.7652 19.8946 19.0196 19.7071 19.2071C19.5196 19.3946 19.2652 19.5 19 19.5H5C4.73478 19.5 4.48043 19.3946 4.29289 19.2071C4.10536 19.0196 4 18.7652 4 18.5Z" fill="#585656"/>
</svg>
