<svg width="32" height="33" viewBox="0 0 32 33" fill="none" xmlns="http://www.w3.org/2000/svg">
<path d="M22.6666 8.49999H29.3333V11.1667H26.6666V28.5C26.6666 28.8536 26.5262 29.1928 26.2761 29.4428C26.0261 29.6929 25.6869 29.8333 25.3333 29.8333H6.66663C6.313 29.8333 5.97387 29.6929 5.72382 29.4428C5.47377 29.1928 5.33329 28.8536 5.33329 28.5V11.1667H2.66663V8.49999H9.33329V4.49999C9.33329 4.14637 9.47377 3.80723 9.72382 3.55718C9.97387 3.30713 10.313 3.16666 10.6666 3.16666H21.3333C21.6869 3.16666 22.0261 3.30713 22.2761 3.55718C22.5262 3.80723 22.6666 4.14637 22.6666 4.49999V8.49999ZM24 11.1667H7.99996V27.1667H24V11.1667ZM17.8853 19.1667L20.2426 21.524L18.3573 23.4093L16 21.052L13.6426 23.4093L11.7573 21.524L14.1146 19.1667L11.7573 16.8093L13.6426 14.924L16 17.2813L18.3573 14.924L20.2426 16.8093L17.8853 19.1667ZM12 5.83332V8.49999H20V5.83332H12Z" fill="#585656"/>
</svg>
